<svg xmlns="http://www.w3.org/2000/svg" viewBox="0 0 256 256" role="img" aria-labelledby="title desc">
  <title id="title">悬象方案三：世界熔芯</title>
  <desc id="desc">四段世界轨道围绕可编译的菱形世界核心和故事星火。</desc>
  <g fill="none" stroke="#253A35" stroke-width="14" stroke-linecap="round">
    <path d="M77 44A98 98 0 0 1 179 44"/>
    <path d="M212 77A98 98 0 0 1 212 179"/>
    <path d="M179 212A98 98 0 0 1 77 212"/>
    <path d="M44 179A98 98 0 0 1 44 77"/>
  </g>
  <path d="M128 67 189 128 128 189 67 128Z" fill="none" stroke="#A45137" stroke-width="11" stroke-linejoin="round"/>
  <path d="M128 91c4 18 17 31 35 37-18 5-31 19-35 37-5-18-18-32-36-37 18-6 31-19 36-37Z" fill="#D7A452"/>
  <circle cx="128" cy="128" r="7" fill="#253A35"/>
</svg>
